<svg width="221" height="221" viewBox="0 0 221 221" fill="none" xmlns="http://www.w3.org/2000/svg">
<path d="M174.118 0H46.2745C20.7178 0 0 20.7178 0 46.2745V174.118C0 199.674 20.7178 220.392 46.2745 220.392H174.118C199.674 220.392 220.392 199.674 220.392 174.118V46.2745C220.392 20.7178 199.674 0 174.118 0Z" fill="#101432"/>
<path d="M83.2527 55.48L86.128 53.5631C90.6283 50.5631 95.6629 48.4565 100.959 47.3569C109.276 45.6306 117.921 46.4557 125.762 49.7224L130.159 51.5545C134.836 53.5035 139.046 56.4251 142.507 60.1255C146.525 64.4204 149.42 69.6416 150.936 75.3255L151.719 78.2588C152.791 82.2792 153.333 86.422 153.333 90.5827V104.098C153.333 108.615 154.467 113.06 156.63 117.025C157.566 118.743 158.687 120.354 159.973 121.829L168.628 131.766L173.674 138.129C175.92 140.962 175.624 145.043 172.991 147.522C171.7 148.736 169.993 149.413 168.22 149.413H51.9727C49.8668 149.413 47.884 148.422 46.6205 146.737C44.9883 144.562 44.837 141.614 46.2362 139.282L47.8103 136.657C48.3523 135.754 49.0189 134.932 49.7899 134.213L55.786 128.631C58.5797 126.031 60.9632 123.022 62.8566 119.708C66.1248 113.99 67.8432 107.518 67.8432 100.931V94.1192V84.2729C67.8432 79.1373 68.9868 74.0651 71.1907 69.4259C73.8762 63.7718 78.0448 58.9522 83.2527 55.48Z" fill="white"/>
<path d="M103.621 55.6875H105.526C107.219 55.6875 108.799 56.533 109.738 57.9416L109.92 58.2138C110.355 58.8679 110.588 59.6365 110.588 60.4224C110.588 62.2491 109.345 63.8412 107.572 64.2844L104.314 65.0993L100.803 65.8514C99.4884 66.133 98.2147 66.5801 97.0123 67.1808C94.599 68.3879 92.5316 70.1871 91.0029 72.4106L90.7959 72.7118C89.621 74.42 88.7621 76.3259 88.2586 78.3369L87.8429 80.0012C87.5825 81.0428 87.4508 82.1134 87.4508 83.1871V86.7973C87.4508 87.9698 86.9849 89.0946 86.1559 89.9236C85.2359 90.8436 83.9582 91.3118 82.6617 91.2036L82.501 91.1903C80.9355 91.0593 79.4939 90.1848 78.8539 88.7495C78.6084 88.1997 78.4312 87.711 78.4312 87.4522V85.2381C78.4312 82.802 78.73 80.3746 79.3206 78.0122C79.7723 76.2052 80.3927 74.4444 81.1731 72.7526L82.3527 70.1973L84.3919 66.8836C85.1214 65.6985 85.9872 64.602 86.9716 63.6177C88.3276 62.2616 89.8939 61.1322 91.61 60.275L96.0782 58.0404L100.419 56.304C101.437 55.8969 102.524 55.6875 103.621 55.6875Z" fill="#0A1D44"/>
<path d="M71.4642 37.6484H73.3693C75.0619 37.6484 76.6423 38.4939 77.5811 39.9025L77.763 40.1747C78.1983 40.8288 78.4313 41.5975 78.4313 42.3833C78.4313 44.21 77.1881 45.8022 75.4156 46.2453L72.1568 47.0602L68.6462 47.8124C67.3317 48.0939 66.0579 48.541 64.8556 49.1418C62.4423 50.3488 60.3748 52.1481 58.8462 54.3716L58.6391 54.6727C57.4642 56.381 56.6054 58.2869 56.1019 60.2979L55.6862 61.9622C55.4258 63.0037 55.294 64.0743 55.294 65.148V68.7582C55.294 69.9308 54.8281 71.0555 53.9991 71.8845C53.0791 72.8045 51.8015 73.2728 50.505 73.1645L50.3442 73.1512C48.7787 73.0202 47.3372 72.1457 46.6972 70.7104C46.4517 70.1606 46.2744 69.672 46.2744 69.4131V67.199C46.2744 64.7629 46.5732 62.3355 47.1638 59.9731C47.6156 58.1661 48.236 56.4053 49.0164 54.7135L50.196 52.1582L52.2352 48.8445C52.9646 47.6594 53.8305 46.5629 54.8148 45.5786C56.1709 44.2225 57.7372 43.0931 59.4532 42.2359L63.9215 40.0014L68.2619 38.2649C69.2807 37.8578 70.3678 37.6484 71.4642 37.6484Z" fill="#FAFCFF"/>
<path d="M143.438 37.6484H141.533C139.84 37.6484 138.26 38.4939 137.321 39.9025L137.139 40.1747C136.704 40.8288 136.471 41.5975 136.471 42.3833C136.471 44.21 137.714 45.8022 139.486 46.2453L142.745 47.0602L146.256 47.8124C147.57 48.0939 148.844 48.541 150.046 49.1418C152.46 50.3488 154.527 52.1481 156.056 54.3716L156.263 54.6727C157.438 56.381 158.297 58.2869 158.8 60.2979L159.216 61.9622C159.476 63.0037 159.608 64.0743 159.608 65.148V68.7582C159.608 69.9308 160.074 71.0555 160.903 71.8845C161.823 72.8045 163.1 73.2728 164.397 73.1645L164.558 73.1512C166.123 73.0202 167.565 72.1457 168.205 70.7104C168.45 70.1606 168.628 69.672 168.628 69.4131V67.199C168.628 64.7629 168.329 62.3355 167.738 59.9731C167.286 58.1661 166.666 56.4053 165.886 54.7135L164.706 52.1582L162.667 48.8445C161.937 47.6594 161.071 46.5629 160.087 45.5786C158.731 44.2225 157.165 43.0931 155.449 42.2359L150.981 40.0014L146.64 38.2649C145.621 37.8578 144.534 37.6484 143.438 37.6484Z" fill="#FAFCFF"/>
<path d="M90.9805 168.522C90.9805 163.815 94.7954 160 99.502 160H127.949C132.656 160 136.471 163.815 136.471 168.522C136.471 171.758 134.638 174.715 131.739 176.154L123.841 180.075C117.468 183.239 109.983 183.239 103.61 180.075L95.7122 176.154C92.8134 174.715 90.9805 171.758 90.9805 168.522Z" fill="white"/>
<path d="M102.745 41.7542C102.745 43.3856 104.067 44.7079 105.699 44.7079H114.693C116.325 44.7079 117.647 43.3856 117.647 41.7542C117.647 40.653 117.035 39.6436 116.058 39.1354L113.639 37.8742C111.482 36.7503 108.911 36.7503 106.753 37.8742L104.334 39.1354C103.358 39.6436 102.745 40.653 102.745 41.7542Z" fill="white"/>
</svg>
