<svg width="459" height="459" viewBox="0 0 459 459" fill="none" xmlns="http://www.w3.org/2000/svg">
<g clip-path="url(#clip0_277_4)">
<rect width="459" height="459" rx="5" fill="url(#paint0_linear_277_4)"/>
<path d="M231 231L459 0V459H0L231 231Z" fill="url(#paint1_linear_277_4)"/>
<g filter="url(#filter0_d_277_4)">
<rect x="89" y="89" width="281" height="281" rx="59" fill="#101432"/>
<rect x="101" y="101" width="257" height="257" rx="47" stroke="#FEFDFF" stroke-width="24"/>
<path d="M195.147 159.735L198.813 157.291C204.551 153.466 210.97 150.78 217.722 149.378C228.327 147.177 239.349 148.229 249.346 152.394L254.952 154.73C260.916 157.215 266.283 160.94 270.696 165.658C275.819 171.134 279.511 177.791 281.443 185.038L282.441 188.778C283.808 193.904 284.5 199.186 284.5 204.491V221.723C284.5 227.482 285.945 233.149 288.703 238.205C289.897 240.395 291.326 242.449 292.965 244.33L304 257L310.434 265.112C313.298 268.724 312.92 273.928 309.563 277.088C307.917 278.637 305.741 279.5 303.481 279.5H155.265C152.58 279.5 150.052 278.236 148.441 276.088C146.36 273.314 146.167 269.556 147.951 266.582L149.958 263.236C150.649 262.084 151.499 261.036 152.482 260.12L160.127 253.002C163.689 249.687 166.728 245.851 169.142 241.626C173.309 234.335 175.5 226.083 175.5 217.685V209V196.446C175.5 189.898 176.958 183.431 179.768 177.516C183.192 170.307 188.507 164.162 195.147 159.735Z" fill="white"/>
<path d="M221.117 160H223.546C225.704 160 227.719 161.078 228.916 162.874L229.148 163.221C229.703 164.055 230 165.035 230 166.037C230 168.366 228.415 170.396 226.155 170.961L222 172L217.524 172.959C215.848 173.318 214.224 173.888 212.691 174.654C209.614 176.193 206.978 178.487 205.029 181.322L204.765 181.706C203.267 183.884 202.172 186.314 201.53 188.878L201 191C200.668 192.328 200.5 193.693 200.5 195.062V199.665C200.5 201.16 199.906 202.594 198.849 203.651C197.676 204.824 196.047 205.421 194.394 205.283L194.189 205.266C192.193 205.099 190.355 203.984 189.539 202.154C189.226 201.453 189 200.83 189 200.5V197.677C189 194.571 189.381 191.476 190.134 188.464C190.71 186.16 191.501 183.915 192.496 181.758L194 178.5L196.6 174.275C197.53 172.764 198.634 171.366 199.889 170.111C201.618 168.382 203.615 166.942 205.803 165.849L211.5 163L217.034 160.786C218.333 160.267 219.719 160 221.117 160Z" fill="#0A1D44"/>
<path d="M180.117 137H182.546C184.704 137 186.719 138.078 187.916 139.874L188.148 140.221C188.703 141.055 189 142.035 189 143.037C189 145.366 187.415 147.396 185.155 147.961L181 149L176.524 149.959C174.848 150.318 173.224 150.888 171.691 151.654C168.614 153.193 165.978 155.487 164.029 158.322L163.765 158.706C162.267 160.884 161.172 163.314 160.53 165.878L160 168C159.668 169.328 159.5 170.693 159.5 172.062V176.665C159.5 178.16 158.906 179.594 157.849 180.651C156.676 181.824 155.047 182.421 153.394 182.283L153.189 182.266C151.193 182.099 149.355 180.984 148.539 179.154C148.226 178.453 148 177.83 148 177.5V174.677C148 171.571 148.381 168.476 149.134 165.464C149.71 163.16 150.501 160.915 151.496 158.758L153 155.5L155.6 151.275C156.53 149.764 157.634 148.366 158.889 147.111C160.618 145.382 162.615 143.942 164.803 142.849L170.5 140L176.034 137.786C177.333 137.267 178.719 137 180.117 137Z" fill="#FAFCFF"/>
<path d="M271.883 137H269.454C267.296 137 265.281 138.078 264.084 139.874L263.852 140.221C263.297 141.055 263 142.035 263 143.037C263 145.366 264.585 147.396 266.845 147.961L271 149L275.476 149.959C277.152 150.318 278.776 150.888 280.309 151.654C283.386 153.193 286.022 155.487 287.971 158.322L288.235 158.706C289.733 160.884 290.828 163.314 291.47 165.878L292 168C292.332 169.328 292.5 170.693 292.5 172.062V176.665C292.5 178.16 293.094 179.594 294.151 180.651C295.324 181.824 296.953 182.421 298.606 182.283L298.811 182.266C300.807 182.099 302.645 180.984 303.461 179.154C303.774 178.453 304 177.83 304 177.5V174.677C304 171.571 303.619 168.476 302.866 165.464C302.29 163.16 301.499 160.915 300.504 158.758L299 155.5L296.4 151.275C295.47 149.764 294.366 148.366 293.111 147.111C291.382 145.382 289.385 143.942 287.197 142.849L281.5 140L275.966 137.786C274.667 137.267 273.281 137 271.883 137Z" fill="#FAFCFF"/>
<path d="M205 303.865C205 297.864 209.864 293 215.865 293H252.135C258.136 293 263 297.864 263 303.865V303.865C263 307.991 260.663 311.761 256.967 313.596L246.897 318.596C238.772 322.63 229.228 322.63 221.103 318.596L211.033 313.596C207.337 311.761 205 307.991 205 303.865V303.865Z" fill="white"/>
<path d="M220 142.234C220 144.314 221.686 146 223.766 146H235.234C237.314 146 239 144.314 239 142.234V142.234C239 140.83 238.219 139.543 236.974 138.895L233.89 137.287C231.139 135.854 227.861 135.854 225.11 137.287L222.026 138.895C220.781 139.543 220 140.83 220 142.234V142.234Z" fill="white"/>
</g>
</g>
<defs>
<filter id="filter0_d_277_4" x="89" y="89" width="295" height="298" filterUnits="userSpaceOnUse" color-interpolation-filters="sRGB">
<feFlood flood-opacity="0" result="BackgroundImageFix"/>
<feColorMatrix in="SourceAlpha" type="matrix" values="0 0 0 0 0 0 0 0 0 0 0 0 0 0 0 0 0 0 127 0" result="hardAlpha"/>
<feOffset dx="10" dy="13"/>
<feGaussianBlur stdDeviation="2"/>
<feComposite in2="hardAlpha" operator="out"/>
<feColorMatrix type="matrix" values="0 0 0 0 0 0 0 0 0 0 0 0 0 0 0 0 0 0 0.25 0"/>
<feBlend mode="normal" in2="BackgroundImageFix" result="effect1_dropShadow_277_4"/>
<feBlend mode="normal" in="SourceGraphic" in2="effect1_dropShadow_277_4" result="shape"/>
</filter>
<linearGradient id="paint0_linear_277_4" x1="0" y1="0" x2="474.5" y2="459" gradientUnits="userSpaceOnUse">
<stop stop-color="#F9954D"/>
<stop offset="0.5" stop-color="#9A3738"/>
<stop offset="1" stop-color="#82304E"/>
</linearGradient>
<linearGradient id="paint1_linear_277_4" x1="0" y1="0" x2="459" y2="459" gradientUnits="userSpaceOnUse">
<stop stop-color="#737373"/>
<stop offset="0.505" stop-color="#202549"/>
<stop offset="1" stop-color="#427AB7"/>
</linearGradient>
<clipPath id="clip0_277_4">
<rect width="459" height="459" rx="5" fill="white"/>
</clipPath>
</defs>
</svg>
